<?xml version="1.0" encoding="UTF-8"?>
<!DOCTYPE svg PUBLIC "-//W3C//DTD SVG 1.1//EN" "http://www.w3.org/Graphics/SVG/1.1/DTD/svg11.dtd">
<svg width="160mm" height="90mm" viewBox="0 0 16000 9000" version="1.1" xmlns="http://www.w3.org/2000/svg" stroke-width="28.222" stroke-linejoin="round" xml:space="preserve">
 <path fill="rgb(255,255,255)" stroke="none" d="M 8016,8974 L 17,8974 17,0 16014,0 16014,8974 8016,8974 Z"/>
 <path fill="none" stroke="rgb(179,179,179)" stroke-linejoin="round" d="M 5233,7151 L 431,7151 431,179 10034,179 10034,7151 5233,7151 Z"/>
 <path fill="none" stroke="rgb(179,179,179)" stroke-linejoin="round" d="M 431,178 L 431,7150"/>
 <path fill="none" stroke="rgb(179,179,179)" stroke-linejoin="round" d="M 1631,178 L 1631,7150"/>
 <path fill="none" stroke="rgb(179,179,179)" stroke-linejoin="round" d="M 2832,178 L 2832,7150"/>
 <path fill="none" stroke="rgb(179,179,179)" stroke-linejoin="round" d="M 4032,178 L 4032,7150"/>
 <path fill="none" stroke="rgb(179,179,179)" stroke-linejoin="round" d="M 5233,178 L 5233,7150"/>
 <path fill="none" stroke="rgb(179,179,179)" stroke-linejoin="round" d="M 6433,178 L 6433,7150"/>
 <path fill="none" stroke="rgb(179,179,179)" stroke-linejoin="round" d="M 7634,178 L 7634,7150"/>
 <path fill="none" stroke="rgb(179,179,179)" stroke-linejoin="round" d="M 8833,178 L 8833,7150"/>
 <path fill="none" stroke="rgb(179,179,179)" stroke-linejoin="round" d="M 10034,178 L 10034,7150"/>
 <path fill="none" stroke="rgb(179,179,179)" stroke-linejoin="round" d="M 281,7150 L 431,7150"/>
 <path fill="none" stroke="rgb(179,179,179)" stroke-linejoin="round" d="M 281,7150 L 431,7150"/>
 <path fill="none" stroke="rgb(179,179,179)" stroke-linejoin="round" d="M 281,178 L 431,178"/>
 <path fill="none" stroke="rgb(179,179,179)" stroke-linejoin="round" d="M 281,178 L 431,178"/>
 <path fill="none" stroke="rgb(179,179,179)" stroke-linejoin="round" d="M 431,7150 L 431,178"/>
 <path fill="none" stroke="rgb(179,179,179)" stroke-linejoin="round" d="M 431,7300 L 431,7150"/>
 <path fill="none" stroke="rgb(179,179,179)" stroke-linejoin="round" d="M 431,7300 L 431,7150"/>
 <path fill="none" stroke="rgb(179,179,179)" stroke-linejoin="round" d="M 1631,7300 L 1631,7150"/>
 <path fill="none" stroke="rgb(179,179,179)" stroke-linejoin="round" d="M 1631,7300 L 1631,7150"/>
 <path fill="none" stroke="rgb(179,179,179)" stroke-linejoin="round" d="M 2832,7300 L 2832,7150"/>
 <path fill="none" stroke="rgb(179,179,179)" stroke-linejoin="round" d="M 2832,7300 L 2832,7150"/>
 <path fill="none" stroke="rgb(179,179,179)" stroke-linejoin="round" d="M 4032,7300 L 4032,7150"/>
 <path fill="none" stroke="rgb(179,179,179)" stroke-linejoin="round" d="M 4032,7300 L 4032,7150"/>
 <path fill="none" stroke="rgb(179,179,179)" stroke-linejoin="round" d="M 5233,7300 L 5233,7150"/>
 <path fill="none" stroke="rgb(179,179,179)" stroke-linejoin="round" d="M 5233,7300 L 5233,7150"/>
 <path fill="none" stroke="rgb(179,179,179)" stroke-linejoin="round" d="M 6433,7300 L 6433,7150"/>
 <path fill="none" stroke="rgb(179,179,179)" stroke-linejoin="round" d="M 6433,7300 L 6433,7150"/>
 <path fill="none" stroke="rgb(179,179,179)" stroke-linejoin="round" d="M 7634,7300 L 7634,7150"/>
 <path fill="none" stroke="rgb(179,179,179)" stroke-linejoin="round" d="M 7634,7300 L 7634,7150"/>
 <path fill="none" stroke="rgb(179,179,179)" stroke-linejoin="round" d="M 8833,7300 L 8833,7150"/>
 <path fill="none" stroke="rgb(179,179,179)" stroke-linejoin="round" d="M 8833,7300 L 8833,7150"/>
 <path fill="none" stroke="rgb(179,179,179)" stroke-linejoin="round" d="M 10034,7300 L 10034,7150"/>
 <path fill="none" stroke="rgb(179,179,179)" stroke-linejoin="round" d="M 10034,7300 L 10034,7150"/>
 <path fill="none" stroke="rgb(179,179,179)" stroke-linejoin="round" d="M 431,7150 L 10034,7150"/>
 <path fill="rgb(0,69,134)" stroke="none" d="M 431,6278 L 431,4535 9231,4535 9231,6278 431,6278 Z"/>
 <path fill="rgb(255,66,14)" stroke="none" d="M 431,4535 L 431,2792 992,2792 992,4535 431,4535 Z"/>
 <path fill="rgb(255,211,32)" stroke="none" d="M 431,2792 L 431,1049 3456,1049 3456,2792 431,2792 Z"/>
 <text class="TextShape"><tspan class="TextParagraph" font-family="Liberation Sans, sans-serif" font-size="353px" font-weight="400"><tspan class="TextPosition" x="336" y="7724"><tspan fill="rgb(0,0,0)" stroke="none">0</tspan></tspan></tspan></text>
 <text class="TextShape"><tspan class="TextParagraph" font-family="Liberation Sans, sans-serif" font-size="353px" font-weight="400"><tspan class="TextPosition" x="1252" y="7724"><tspan fill="rgb(0,0,0)" stroke="none">2000</tspan></tspan></tspan></text>
 <text class="TextShape"><tspan class="TextParagraph" font-family="Liberation Sans, sans-serif" font-size="353px" font-weight="400"><tspan class="TextPosition" x="2453" y="7724"><tspan fill="rgb(0,0,0)" stroke="none">4000</tspan></tspan></tspan></text>
 <text class="TextShape"><tspan class="TextParagraph" font-family="Liberation Sans, sans-serif" font-size="353px" font-weight="400"><tspan class="TextPosition" x="3653" y="7724"><tspan fill="rgb(0,0,0)" stroke="none">6000</tspan></tspan></tspan></text>
 <text class="TextShape"><tspan class="TextParagraph" font-family="Liberation Sans, sans-serif" font-size="353px" font-weight="400"><tspan class="TextPosition" x="4854" y="7724"><tspan fill="rgb(0,0,0)" stroke="none">8000</tspan></tspan></tspan></text>
 <text class="TextShape"><tspan class="TextParagraph" font-family="Liberation Sans, sans-serif" font-size="353px" font-weight="400"><tspan class="TextPosition" x="5960" y="7724"><tspan fill="rgb(0,0,0)" stroke="none">10000</tspan></tspan></tspan></text>
 <text class="TextShape"><tspan class="TextParagraph" font-family="Liberation Sans, sans-serif" font-size="353px" font-weight="400"><tspan class="TextPosition" x="7161" y="7724"><tspan fill="rgb(0,0,0)" stroke="none">12000</tspan></tspan></tspan></text>
 <text class="TextShape"><tspan class="TextParagraph" font-family="Liberation Sans, sans-serif" font-size="353px" font-weight="400"><tspan class="TextPosition" x="8361" y="7724"><tspan fill="rgb(0,0,0)" stroke="none">14000</tspan></tspan></tspan></text>
 <text class="TextShape"><tspan class="TextParagraph" font-family="Liberation Sans, sans-serif" font-size="353px" font-weight="400"><tspan class="TextPosition" x="9562" y="7724"><tspan fill="rgb(0,0,0)" stroke="none">16000</tspan></tspan></tspan></text>
 <text class="TextShape"><tspan class="TextParagraph" font-family="Liberation Sans, sans-serif" font-size="353px" font-weight="400"><tspan class="TextPosition" x="9331" y="5529"><tspan fill="rgb(0,0,0)" stroke="none">14663</tspan></tspan></tspan></text>
 <text class="TextShape"><tspan class="TextParagraph" font-family="Liberation Sans, sans-serif" font-size="353px" font-weight="400"><tspan class="TextPosition" x="1092" y="3786"><tspan fill="rgb(0,0,0)" stroke="none">935</tspan></tspan></tspan></text>
 <text class="TextShape"><tspan class="TextParagraph" font-family="Liberation Sans, sans-serif" font-size="353px" font-weight="400"><tspan class="TextPosition" x="3556" y="2043"><tspan fill="rgb(0,0,0)" stroke="none">5040</tspan></tspan></tspan></text>
 <path fill="rgb(0,69,134)" stroke="none" d="M 11050,4086 L 10944,4086 10944,3875 11155,3875 11155,4086 11050,4086 Z"/>
 <path fill="rgb(255,66,14)" stroke="none" d="M 11050,4591 L 10944,4591 10944,4381 11155,4381 11155,4591 11050,4591 Z"/>
 <path fill="rgb(255,211,32)" stroke="none" d="M 11050,5097 L 10944,5097 10944,4886 11155,4886 11155,5097 11050,5097 Z"/>
 <text class="TextShape"><tspan class="TextParagraph" font-family="Liberation Sans, sans-serif" font-size="353px" font-weight="400"><tspan class="TextPosition" x="11255" y="4102"><tspan fill="rgb(0,0,0)" stroke="none">Breadh First Search</tspan></tspan></tspan></text>
 <text class="TextShape"><tspan class="TextParagraph" font-family="Liberation Sans, sans-serif" font-size="353px" font-weight="400"><tspan class="TextPosition" x="11255" y="4607"><tspan fill="rgb(0,0,0)" stroke="none">A* with Ignore Preconditions</tspan></tspan></tspan></text>
 <text class="TextShape"><tspan class="TextParagraph" font-family="Liberation Sans, sans-serif" font-size="353px" font-weight="400"><tspan class="TextPosition" x="11255" y="5113"><tspan fill="rgb(0,0,0)" stroke="none">A* with PG Level Sum</tspan></tspan></tspan></text>
 <text class="TextShape"><tspan class="TextParagraph" font-family="Liberation Sans, sans-serif" font-size="318px" font-weight="400"><tspan class="TextPosition" x="4112" y="8378"><tspan fill="rgb(0,0,0)" stroke="none">Node Expansions</tspan></tspan></tspan></text>
</svg>